<svg width="89" height="88" viewBox="0 0 89 88" fill="none" xmlns="http://www.w3.org/2000/svg">
<path d="M59.3507 58.8502L52.1848 51.6843M52.1848 51.6843C53.4105 50.4585 54.3829 49.0033 55.0463 47.4018C55.7096 45.8003 56.0511 44.0837 56.0511 42.3502C56.0511 40.6167 55.7096 38.9002 55.0463 37.2987C54.3829 35.6972 53.4105 34.242 52.1848 33.0162C50.959 31.7904 49.5038 30.8181 47.9023 30.1547C46.3007 29.4913 44.5842 29.1499 42.8507 29.1499C41.1172 29.1499 39.4007 29.4913 37.7992 30.1547C36.1976 30.8181 34.7424 31.7904 33.5167 33.0162C31.0411 35.4917 29.6504 38.8493 29.6504 42.3502C29.6504 45.8512 31.0411 49.2087 33.5167 51.6843C35.9922 54.1598 39.3498 55.5506 42.8507 55.5506C46.3517 55.5506 49.7092 54.1598 52.1848 51.6843Z" stroke="#81637E" stroke-width="3.52" stroke-linecap="round" stroke-linejoin="round"/>
</svg>
