<svg width="67" height="67" viewBox="0 0 67 67" fill="none" xmlns="http://www.w3.org/2000/svg">
<path d="M50.3754 50.3754L42.2323 42.2323M42.2323 42.2323C43.6252 40.8393 44.7301 39.1857 45.4839 37.3658C46.2378 35.5459 46.6258 33.5953 46.6258 31.6254C46.6258 29.6555 46.2378 27.7049 45.4839 25.885C44.7301 24.0651 43.6252 22.4114 42.2323 21.0185C40.8393 19.6256 39.1857 18.5207 37.3658 17.7668C35.5459 17.013 33.5953 16.625 31.6254 16.625C29.6555 16.625 27.7049 17.013 25.885 17.7668C24.0651 18.5207 22.4114 19.6256 21.0185 21.0185C18.2054 23.8316 16.625 27.647 16.625 31.6254C16.625 35.6037 18.2054 39.4191 21.0185 42.2323C23.8316 45.0454 27.647 46.6258 31.6254 46.6258C35.6037 46.6258 39.4191 45.0454 42.2323 42.2323Z" stroke="#81637E" stroke-width="4" stroke-linecap="round" stroke-linejoin="round"/>
</svg>
