<svg width="89" height="129" viewBox="0 0 89 129" fill="none" xmlns="http://www.w3.org/2000/svg">
<g filter="url(#filter0_d_1223_3809)">
<rect x="30" y="26" width="69" height="69" rx="6.9" fill="white"/>
<path fill-rule="evenodd" clip-rule="evenodd" d="M59.5686 55.6174C59.3429 55.5077 59.0899 55.5109 58.8529 55.4434C56.7975 54.8575 55.511 53.0285 55.6219 50.8379C55.7212 48.8765 57.2913 47.1775 59.3308 46.8239C59.3775 46.8158 59.4383 46.8377 59.4606 46.77C61.1382 46.77 62.8158 46.77 64.4934 46.77C64.6086 46.8347 64.6206 46.9468 64.6254 47.0607C64.6328 47.2331 64.629 47.4056 64.629 47.578C64.6292 50.0353 64.6291 52.4926 64.6291 54.9498C64.6291 55.0446 64.6305 55.1395 64.6281 55.2343C64.6196 55.589 64.5736 55.6385 64.2196 55.6392C62.8624 55.6419 61.5053 55.6398 60.1481 55.6408C60.0188 55.6409 59.8885 55.6299 59.7609 55.6634C59.6909 55.673 59.6234 55.6711 59.5686 55.6174Z" fill="#F05123"/>
<path fill-rule="evenodd" clip-rule="evenodd" d="M59.7129 55.6095C59.7815 55.532 59.8738 55.5616 59.9561 55.5616C61.3891 55.5618 62.8222 55.5594 64.2552 55.5716C64.4815 55.5734 64.5459 55.516 64.5452 55.2853C64.5369 52.5472 64.5399 49.8091 64.5398 47.0709C64.5398 46.9681 64.5512 46.8633 64.4932 46.7693C65.9805 46.7693 67.4678 46.7693 68.9551 46.7693C69.0589 46.8116 69.1626 46.8116 69.2664 46.7693C69.3356 46.7693 69.4048 46.7693 69.474 46.7693C69.5579 46.8627 69.6804 46.8372 69.7836 46.8594C71.9397 47.3235 73.3738 49.1636 73.3121 51.3956C73.2554 53.4455 71.637 55.2338 69.5466 55.5557C69.4195 55.5752 69.2913 55.5881 69.1635 55.6039C69.0345 55.7449 68.8629 55.6889 68.7073 55.6977C68.5805 55.7049 68.4524 55.7067 68.3252 55.6962C67.1771 55.6991 66.029 55.7043 64.8808 55.7016C64.7686 55.7014 64.6564 55.7037 64.5443 55.6952C63.0288 55.7099 61.5133 55.7005 59.9978 55.6994C59.8959 55.6992 59.7883 55.7009 59.7129 55.6095Z" fill="#F37363"/>
<path fill-rule="evenodd" clip-rule="evenodd" d="M59.461 73.2648C59.3887 73.1723 59.2752 73.1894 59.1805 73.1693C57.0308 72.7132 55.5729 70.7996 55.6771 68.5649C55.7747 66.474 57.4775 64.6976 59.6131 64.4587C59.785 64.3429 59.9962 64.4369 60.1743 64.3532C60.597 64.3107 61.0208 64.3356 61.4441 64.3336C62.3344 64.3293 63.2249 64.3304 64.1152 64.3341C64.2494 64.3347 64.3961 64.3057 64.5032 64.4276C64.5122 64.5125 64.529 64.5974 64.5291 64.6823C64.5307 66.0443 64.5356 67.4062 64.529 68.7682C64.5196 70.726 63.3897 72.3512 61.5843 73.0056C61.2979 73.1093 60.9991 73.1792 60.7061 73.2647C60.2911 73.2648 59.8761 73.2648 59.461 73.2648Z" fill="#47BA7A"/>
<path fill-rule="evenodd" clip-rule="evenodd" d="M69.2664 46.7693C69.1626 46.8503 69.0589 46.8459 68.9551 46.7693C69.0589 46.7693 69.1626 46.7693 69.2664 46.7693Z" fill="#F48270"/>
<path fill-rule="evenodd" clip-rule="evenodd" d="M64.5023 64.4276C63.037 64.4314 61.5718 64.4351 60.1065 64.4388C59.943 64.4313 59.7779 64.4644 59.6158 64.4202C58.9263 64.3116 58.2752 64.1027 57.6843 63.719C56.1797 62.7416 55.3917 60.9081 55.7463 59.1921C56.1296 57.3371 57.5328 55.9701 59.3662 55.6643C59.4342 55.653 59.5007 55.6328 59.5678 55.6167C59.6161 55.6144 59.6642 55.612 59.7124 55.6096C61.3165 55.6129 62.9208 55.6162 64.5249 55.6194C64.6541 55.7218 64.6258 55.8687 64.6256 56.0023C64.6246 56.9582 64.6369 57.9138 64.6195 58.8696C64.6174 58.9901 64.6136 59.1107 64.6371 59.23C64.6195 59.6173 64.6273 60.005 64.6231 60.3927C64.6217 60.5107 64.6417 60.6372 64.5414 60.7331C64.538 61.8637 64.5353 62.9943 64.53 64.1249C64.5295 64.2259 64.5541 64.3307 64.5023 64.4276Z" fill="#8E64AA"/>
<path fill-rule="evenodd" clip-rule="evenodd" d="M64.5429 60.7328C64.5412 60.3129 64.5395 59.893 64.5375 59.4731C64.5371 59.3958 64.5306 59.3175 64.5915 59.2558C64.5603 59.0551 64.5979 58.8588 64.6627 58.6735C65.1951 57.1506 66.2258 56.1425 67.7875 55.6906C67.9701 55.6378 68.1644 55.6664 68.3485 55.6191C68.6204 55.614 68.8923 55.6089 69.1643 55.6038C71.176 55.7719 72.6857 56.9809 73.2228 58.8538C73.934 61.3339 72.2288 63.9905 69.6835 64.3678C67.2951 64.7219 65.211 63.3187 64.6279 60.968C64.6083 60.8892 64.626 60.791 64.5429 60.7328Z" fill="#42B8EA"/>
<path fill-rule="evenodd" clip-rule="evenodd" d="M59.6169 64.4202C59.7807 64.4264 59.9445 64.4326 60.108 64.4388C59.9441 64.4774 59.7785 64.4632 59.6133 64.4587C59.6145 64.4458 59.6157 64.4329 59.6169 64.4202Z" fill="#C8E6D2"/>
<path fill-rule="evenodd" clip-rule="evenodd" d="M68.3474 55.6194C68.0988 55.6847 67.8447 55.7341 67.6026 55.818C65.9453 56.3923 64.9461 57.5448 64.5905 59.2559C64.487 59.1774 64.5343 59.065 64.5338 58.9689C64.5282 57.8525 64.5274 56.736 64.5254 55.6195C65.7993 55.6195 67.0733 55.6194 68.3474 55.6194Z" fill="white"/>
<rect x="30.5" y="26.5" width="68" height="68" rx="6.4" stroke="white"/>
</g>
<defs>
<filter id="filter0_d_1223_3809" x="0" y="0" width="129" height="129" filterUnits="userSpaceOnUse" color-interpolation-filters="sRGB">
<feFlood flood-opacity="0" result="BackgroundImageFix"/>
<feColorMatrix in="SourceAlpha" type="matrix" values="0 0 0 0 0 0 0 0 0 0 0 0 0 0 0 0 0 0 127 0" result="hardAlpha"/>
<feOffset dy="4"/>
<feGaussianBlur stdDeviation="15"/>
<feComposite in2="hardAlpha" operator="out"/>
<feColorMatrix type="matrix" values="0 0 0 0 0.662745 0 0 0 0 0.239216 0 0 0 0 0.721569 0 0 0 0.07 0"/>
<feBlend mode="normal" in2="BackgroundImageFix" result="effect1_dropShadow_1223_3809"/>
<feBlend mode="normal" in="SourceGraphic" in2="effect1_dropShadow_1223_3809" result="shape"/>
</filter>
</defs>
</svg>
